<?xml version="1.0" standalone="no"?><!DOCTYPE svg PUBLIC "-//W3C//DTD SVG 1.1//EN" "http://www.w3.org/Graphics/SVG/1.1/DTD/svg11.dtd"><svg t="1726844511745" class="icon" viewBox="0 0 1024 1024" version="1.1" xmlns="http://www.w3.org/2000/svg" p-id="5774" width="32" height="32" xmlns:xlink="http://www.w3.org/1999/xlink"><path d="M879.27466667 422.46826667c-101.13706667 0-154.58986667 96.69973333-197.5296 174.42133333-27.5456 49.80053333-56.0128 101.2736-83.968 104.07253333-30.44693333-6.0416-51.3024-24.74666667-75.3664-46.25066666-33.86026667-30.34453333-71.9872-64.3072-139.1616-61.81546667-81.92 3.54986667-155.98933333 61.5424-220.16 172.47573333a34.13333333 34.13333333 0 0 0 59.0848 34.2016c51.712-89.42933333 106.9056-135.9872 163.97653333-138.47893333 39.38986667-1.536 60.75733333 17.68106667 90.65813333 44.4416 28.672 25.7024 61.16693333 54.784 112.9472 63.35146667a33.6896 33.6896 0 0 0 5.56373334 0.47786666c69.0176 0 108.20266667-70.89493333 146.09066666-139.43466666 30.24213333-54.74986667 61.3376-110.93333333 103.66293334-131.2768v394.6496H102.4V212.992h520.704a34.13333333 34.13333333 0 1 0 0-68.26666667H68.26666667a34.13333333 34.13333333 0 0 0-34.13333334 34.13333334v748.61226666a34.13333333 34.13333333 0 0 0 34.13333334 34.13333334h811.008a34.13333333 34.13333333 0 0 0 34.13333333-34.13333334v-470.86933333a34.13333333 34.13333333 0 0 0-34.13333333-34.13333333z" p-id="5775"></path><path d="M158.89066667 418.47466667c0 61.81546667 50.31253333 112.128 112.128 112.128S383.14666667 480.29013333 383.14666667 418.47466667s-50.31253333-112.09386667-112.128-112.09386667-112.128 50.2784-112.128 112.09386667z m155.98933333 0a43.89546667 43.89546667 0 0 1-87.72266667 0 43.89546667 43.89546667 0 0 1 87.72266667 0zM989.86666667 152.1664h-65.46773334V86.69866667a34.13333333 34.13333333 0 1 0-68.26666666 0v65.4336H768.68266667a34.13333333 34.13333333 0 1 0 0 68.26666666h87.4496v87.4496a34.13333333 34.13333333 0 1 0 68.26666666 0v-87.41546666H989.86666667a34.13333333 34.13333333 0 1 0 0-68.26666667z" p-id="5776"></path></svg>